Coordinates
version=1
nRows=5
nColumns=40
inDegrees=yes

Units are S.I. units (second, meters, Newtons, ...)
Angles are in degrees.

endheader
time	pelvis_tilt	pelvis_list	pelvis_rotation	pelvis_tx	pelvis_ty	pelvis_tz	hip_flexion_r	hip_adduction_r	hip_rotation_r	knee_angle_r	knee_angle_r_beta	ankle_angle_r	subtalar_angle_r	mtp_angle_r	hip_flexion_l	hip_adduction_l	hip_rotation_l	knee_angle_l	knee_angle_l_beta	ankle_angle_l	subtalar_angle_l	mtp_angle_l	lumbar_extension	lumbar_bending	lumbar_rotation	arm_flex_r	arm_add_r	arm_rot_r	elbow_flex_r	pro_sup_r	wrist_flex_r	wrist_dev_r	arm_flex_l	arm_add_l	arm_rot_l	elbow_flex_l	pro_sup_l	wrist_flex_l	wrist_dev_l
     19.80250000	     -6.52567452	     -3.29020889	      2.20587210	      1.13508124	      0.91145165	      0.41772902	      0.06767818	     -2.82667687	    -14.12520092	     33.13323444	     33.13323444	     11.51094724	     -7.16407489	    -13.88616978	     31.77959318	     -3.44733218	     -2.95298274	     27.81202377	     27.81202377	      5.93345924	    -14.75700815	      4.85008000	     -6.18907887	      3.39432925	      3.61348331	     36.21850763	    -15.33083084	     -8.47233359	    119.24524649	     44.32195237	      0.00000000	      0.00000000	    -11.37519117	     -6.09257467	      1.85744673	     20.15282377	     44.50786055	      0.00000000	      0.00000000
     19.81371429	     -6.43267241	     -3.24804753	      1.94830853	      1.13531597	      0.91370020	      0.41550807	      1.79857209	     -3.41167905	    -13.18747772	     36.98357562	     36.98357562	      8.92788013	     -9.85536820	    -14.95256483	     30.75482953	     -3.41649036	     -3.31855960	     27.46822653	     27.46822653	      6.62682775	    -14.48414209	      4.68798016	     -6.32215736	      3.50852297	      3.66179540	     33.50622234	    -15.26846484	     -8.66673226	    117.68817348	     44.37874931	      0.00000000	      0.00000000	    -10.24849333	     -6.21641556	      1.98482990	     21.22210923	     44.53273834	      0.00000000	      0.00000000
     19.82492857	     -6.33431089	     -3.04870952	      1.66183946	      1.13533156	      0.91592345	      0.41334156	      3.73253595	     -4.29599531	    -12.54710352	     41.12593012	     41.12593012	      6.86806152	    -11.35896658	    -14.78202436	     29.62067050	     -3.23472157	     -3.82533278	     26.92479420	     26.92479420	      7.15132814	    -14.11829138	      4.47935704	     -6.54090861	      3.45009684	      3.48997001	     30.86121040	    -14.91160050	     -8.34728252	    116.24541800	     44.40414271	      0.00000000	      0.00000000	     -8.98043962	     -6.29343122	      2.00788041	     21.98099126	     44.55832795	      0.00000000	      0.00000000
     19.83614286	     -6.28869769	     -2.96619964	      1.36004834	      1.13513454	      0.91790552	      0.41143742	      5.87300399	     -4.89395946	    -11.69805687	     45.25561058	     45.25561058	      4.94962416	    -13.03506337	    -14.10588433	     28.54490010	     -3.16093303	     -4.23994463	     26.33964768	     26.33964768	      7.68124541	    -13.77790590	      4.21981824	     -6.65605989	      3.51090709	      3.44202581	     28.27449497	    -14.76318366	     -8.15332642	    114.27736145	     44.45009112	      0.00000000	      0.00000000	     -7.59439004	     -6.37728952	      1.99958428	     22.90139852	     44.58914402	      0.00000000	      0.00000000
     19.84735714	     -6.31198442	     -3.11511910	      0.96762096	      1.13468264	      0.91973735	      0.41012893	      8.34562957	     -4.93970914	    -10.44751865	     49.56395215	     49.56395215	      4.47233375	    -14.21328451	     -9.03469162	     27.56674927	     -3.43020075	     -4.81837375	     25.72615958	     25.72615958	      7.85508372	    -13.30896187	      3.17556685	     -6.61082396	      3.72537445	      3.15609129	     26.34755729	    -14.31863065	     -8.56895886	    109.72640397	     44.61718733	      0.00000000	      0.00000000	     -6.93385552	     -6.71117999	      2.04452086	     25.13477989	     44.63263314	      0.00000000	      0.00000000
